:FULLY-SPECIFIED
:FORCE-ALL-JOINTS-BE-3DOF
:DEGREES
204
root 4.85145 15.0429 -25.4624 7.19917 -1.37286 5.5878
lfemur 7.48663 -1.46036 0.74046
ltibia 5.79229 -0 0
lfoot -35.9687 -11.6914 0.0429046
ltoes 46.8472 -0 0
rfemur -31.7817 -20.0468 -8.44774
rtibia 51.3108 -0 0
rfoot -26.3057 18.0971 -0.0973295
rtoes 60.1774 -0 0
lowerback -2.93898 -1.43591 -0.470246
upperback -0.683013 -1.83699 -7.62642
thorax 0.711917 -0.931616 -7.76404
lowerneck -11.3974 0.299937 6.92875
upperneck 3.86085 -0.777748 2.38709
head 3.26581 -0.162774 -0.485938
lclavicle -9.91649e-15 -6.16364e-14 -1.54799e-31
lhumerus -59.331 -47.0221 116.502
lradius 54.0047 -0 0
lwrist 25.2348 0 0
lhand 40.6694 29.6042 0.00119192
lfingers 7.12502 -0 0
lthumb 62.9474 39.8634 0.000460589
rclavicle -9.91649e-15 -6.16364e-14 -1.54799e-31
rhumerus -2.62925 -26.6419 -14.4561
rradius 53.7582 -0 0
rwrist -21.7535 0 0
rhand -38.2075 -59.8623 0.0354796
rfingers 7.12502 -0 0
rthumb -11.2392 -89.5376 0.0340092
205
root 4.84166 15.0372 -25.4609 7.21093 -1.55168 5.6061
lfemur 7.62421 -1.65391 0.78826
ltibia 5.62092 -0 0
lfoot -36.1205 -11.812 0.0109617
ltoes 46.9263 -0 0
rfemur -31.8011 -20.1106 -8.47379
rtibia 51.1865 -0 0
rfoot -26.485 18.3178 -0.0248581
rtoes 60.2577 -0 0
lowerback -2.96719 -1.4081 -0.462734
upperback -0.688892 -1.7999 -7.65918
thorax 0.720845 -0.912424 -7.80472
lowerneck -11.4022 0.337726 6.97621
upperneck 3.87013 -0.734 2.37181
head 3.26823 -0.140782 -0.497007
lclavicle -1.01558e-14 -6.19231e-14 -3.95543e-32
lhumerus -59.3972 -47.0526 116.522
lradius 54.0172 -0 0
lwrist 25.2998 0 0
lhand 40.6862 29.6357 0.000304557
lfingers 7.12502 -0 0
lthumb 62.9614 39.878 0.000117687
rclavicle -1.01558e-14 -6.19231e-14 -3.95543e-32
rhumerus -2.4071 -26.7951 -14.157
rradius 53.5536 -0 0
rwrist -21.7744 0 0
rhand -38.2815 -60.0654 0.00906443
rfingers 7.12502 -0 0
rthumb -11.3107 -89.7393 0.00868881
206
root 4.83833 15.0352 -25.4604 7.21493 -1.61263 5.61233
lfemur 7.67108 -1.71991 0.80445
ltibia 5.56251 0 0
lfoot -36.1723 -11.8531 0
ltoes 46.9532 0 0
rfemur -31.8077 -20.1323 -8.48266
rtibia 51.1441 0 0
rfoot -26.5461 18.393 0
rtoes 60.2851 0 0
lowerback -2.9768 -1.39862 -0.460177
upperback -0.690901 -1.78726 -7.67034
thorax 0.723885 -0.905881 -7.81859
lowerneck -11.4038 0.350607 6.99238
upperneck 3.87329 -0.719088 2.3666
head 3.26906 -0.133286 -0.50078
lclavicle -1.02374e-14 -6.20208e-14 0
lhumerus -59.4198 -47.063 116.529
lradius 54.0214 0 0
lwrist 25.3219 0 0
lhand 40.6919 29.6464 0
lfingers 7.12502 0 0
lthumb 62.9662 39.8829 0
rclavicle -1.02374e-14 -6.20208e-14 0
rhumerus -2.33153 -26.8475 -14.0552
rradius 53.4839 0 0
rwrist -21.7815 0 0
rhand -38.3067 -60.1346 0
rfingers 7.12502 0 0
rthumb -11.335 -449.808 0
207
root 4.84141 15.0368 -25.4608 7.22434 -1.53982 5.59318
lfemur 7.59568 -1.66284 0.801062
ltibia 5.63656 -0 0
lfoot -36.1409 -11.8314 0.00341629
ltoes 46.9303 -0 0
rfemur -31.7709 -20.0876 -8.46931
rtibia 51.1225 -0 0
rfoot -26.5624 18.307 0.00740844
rtoes 60.2753 -0 0
lowerback -2.97126 -1.4013 -0.456229
upperback -0.691711 -1.79109 -7.65092
thorax 0.720406 -0.90804 -7.80039
lowerneck -11.4015 0.340295 6.97972
upperneck 3.87028 -0.730456 2.36341
head 3.26761 -0.139328 -0.500138
lclavicle -1.02579e-14 -6.18819e-14 1.41311e-32
lhumerus -59.413 -47.0379 116.539
lradius 54.0365 -0 0
lwrist 25.3074 0 0
lhand 40.6291 29.6171 0.00953411
lfingers 7.12502 -0 0
lthumb 62.9084 39.883 -2.99331e-05
rclavicle -1.02579e-14 -6.18819e-14 1.41311e-32
rhumerus -2.38875 -26.8036 -14.1383
rradius 53.4974 -0 0
rwrist -21.7165 0 0
rhand -38.2689 -60.0747 0.0117295
rfingers 7.12502 -0 0
rthumb -11.2985 -89.7482 0.0113028
208
root 4.85043 15.0417 -25.4621 7.25179 -1.32621 5.53709
lfemur 7.3745 -1.49547 0.790689
ltibia 5.85377 -0 0
lfoot -36.0489 -11.7678 0.0133704
ltoes 46.8633 -0 0
rfemur -31.6631 -19.9566 -8.42997
rtibia 51.0591 -0 0
rfoot -26.6101 18.0548 0.0289995
rtoes 60.2465 -0 0
lowerback -2.955 -1.40918 -0.444649
upperback -0.694094 -1.80234 -7.59395
thorax 0.710194 -0.914367 -7.74698
lowerneck -11.3949 0.310045 6.94258
upperneck 3.86143 -0.763808 2.35405
head 3.26335 -0.157055 -0.498253
lclavicle -1.03181e-14 -6.14744e-14 5.53031e-32
lhumerus -59.3928 -46.9644 116.567
lradius 54.0808 -0 0
lwrist 25.2648 0 0
lhand 40.4448 29.5309 0.0373174
lfingers 7.12502 -0 0
lthumb 62.7387 39.8833 -0.000117156
rclavicle -1.03181e-14 -6.14744e-14 5.53031e-32
rhumerus -2.55691 -26.675 -14.3821
rradius 53.5369 -0 0
rwrist -21.5257 0 0
rhand -38.158 -59.899 0.0459105
rfingers 7.12502 -0 0
rthumb -11.1914 -89.5726 0.0442403
209
root 4.8651 15.0495 -25.4642 7.29596 -0.978891 5.44612
lfemur 7.01485 -1.22343 0.772448
ltibia 6.2069 -0 0
lfoot -35.8993 -11.6643 0.0293305
ltoes 46.7542 -0 0
rfemur -31.4879 -19.7438 -8.36557
rtibia 50.956 -0 0
rfoot -26.6879 17.6447 0.0636533
rtoes 60.1997 -0 0
lowerback -2.92859 -1.42199 -0.425831
upperback -0.697992 -1.82062 -7.50135
thorax 0.693584 -0.924631 -7.66017
lowerneck -11.3841 0.260887 6.88221
upperneck 3.84707 -0.81802 2.33886
head 3.25642 -0.185868 -0.495186
lclavicle -1.04158e-14 -6.0812e-14 1.21309e-31
lhumerus -59.3601 -46.8449 116.613
lradius 54.1528 -0 0
lwrist 25.1956 0 0
lhand 40.145 29.3907 0.0818911
lfingers 7.12502 -0 0
lthumb 62.4629 39.8838 -0.000257026
rclavicle -1.04158e-14 -6.0812e-14 1.21309e-31
rhumerus -2.83115 -26.4675 -14.7787
rradius 53.6012 -0 0
rwrist -21.2156 0 0
rhand -37.9774 -59.6132 0.10075
rfingers 7.12502 -0 0
rthumb -11.0171 -89.2871 0.0970843
210
root 4.88511 15.0602 -25.4671 7.35531 -0.505112 5.32251
lfemur 6.52422 -0.852571 0.744817
ltibia 6.68849 -0 0
lfoot -35.6952 -11.5232 0.0506625
ltoes 46.6055 -0 0
rfemur -31.2487 -19.4538 -8.27671
rtibia 50.8154 -0 0
rfoot -26.7944 17.0853 0.110012
rtoes 60.1359 -0 0
lowerback -2.89256 -1.43948 -0.400173
upperback -0.703357 -1.84554 -7.37505
thorax 0.670903 -0.93859 -7.54177
lowerneck -11.3692 0.193857 6.79984
upperneck 3.82751 -0.891968 2.31815
head 3.24697 -0.225168 -0.490997
lclavicle -1.05492e-14 -5.99086e-14 2.09517e-31
lhumerus -59.3154 -46.682 116.675
lradius 54.2509 -0 0
lwrist 25.1013 0 0
lhand 39.7361 29.1991 0.141497
lfingers 7.12502 -0 0
lthumb 62.0866 39.8844 -0.000444103
rclavicle -1.05492e-14 -5.99086e-14 2.09517e-31
rhumerus -3.20697 -26.1872 -15.3202
rradius 53.6889 -0 0
rwrist -20.7925 0 0
rhand -37.7308 -59.2231 0.174087
rfingers 7.12502 -0 0
rthumb -10.7789 -88.8975 0.167751
211
root 4.91016 15.0736 -25.4707 7.42816 0.0881471 5.16847
lfemur 5.90999 -0.388801 0.705767
ltibia 7.29134 -0 0
lfoot -35.4398 -11.3464 0.0766513
ltoes 46.4194 -0 0
rfemur -30.9494 -19.0914 -8.16393
rtibia 50.6394 -0 0
rfoot -26.9284 16.385 0.166578
rtoes 60.056 -0 0
lowerback -2.84748 -1.46139 -0.368075
upperback -0.710148 -1.87671 -7.21697
thorax 0.642476 -0.955995 -7.39356
lowerneck -11.3505 0.109994 6.69674
upperneck 3.80306 -0.98453 2.29227
head 3.23513 -0.274355 -0.485746
lclavicle -1.07161e-14 -5.87779e-14 3.16953e-31
lhumerus -59.2592 -46.4781 116.754
lradius 54.3738 -0 0
lwrist 24.9831 0 0
lhand 39.224 28.9587 0.214167
lfingers 7.12502 -0 0
lthumb 61.6157 39.8853 -0.000672071
rclavicle -1.07161e-14 -5.87779e-14 3.16953e-31
rhumerus -3.68021 -25.8409 -15.9991
rradius 53.7986 -0 0
rwrist -20.263 0 0
rhand -37.4213 -58.7345 0.263502
rfingers 7.12502 -0 0
rthumb -10.4802 -88.4095 0.253908
212
root 4.93993 15.0895 -25.4749 7.51269 0.793615 4.98632
lfemur 5.17937 0.161959 0.652879
ltibia 8.00796 -0 0
lfoot -35.1358 -11.136 0.106534
ltoes 46.1982 -0 0
rfemur -30.5933 -18.6612 -8.02756
rtibia 50.4302 -0 0
rfoot -27.0885 15.5523 0.231681
rtoes 59.9611 -0 0
lowerback -2.7939 -1.48748 -0.329936
upperback -0.718334 -1.91374 -7.02904
thorax 0.608623 -0.97659 -7.21737
lowerneck -11.3281 0.0103406 6.57413
upperneck 3.77405 -1.09458 2.26155
head 3.22106 -0.332829 -0.479489
lclavicle -1.09145e-14 -5.74337e-14 4.40391e-31
lhumerus -59.1921 -46.2357 116.847
lradius 54.5199 -0 0
lwrist 24.8427 0 0
lhand 38.6146 28.6719 0.297778
lfingers 7.12502 -0 0
lthumb 61.056 39.8863 -0.000934196
rclavicle -1.09145e-14 -5.74337e-14 4.40391e-31
rhumerus -4.2469 -25.4358 -16.8077
rradius 53.929 -0 0
rwrist -19.6335 0 0
rhand -37.0524 -58.1529 0.366388
rfingers 7.12502 -0 0
rthumb -10.1239 -87.8285 0.353042
213
root 4.97413 15.1078 -25.4798 7.60704 1.60423 4.77833
lfemur 4.33949 0.793664 0.583466
ltibia 8.83107 -0 0
lfoot -34.7867 -10.8942 0.139471
ltoes 45.9441 -0 0
rfemur -30.1842 -18.1681 -7.86789
rtibia 50.1899 -0 0
rfoot -27.2735 14.5956 0.303576
rtoes 59.852 -0 0
lowerback -2.73237 -1.51748 -0.286159
upperback -0.727886 -1.95624 -6.81317
thorax 0.569662 -1.00012 -7.01497
lowerneck -11.302 -0.104061 6.43325
upperneck 3.7408 -1.22101 2.22634
head 3.20488 -0.399991 -0.472285
lclavicle -1.11424e-14 -5.58897e-14 5.76427e-31
lhumerus -59.1148 -45.9575 116.953
lradius 54.6876 -0 0
lwrist 24.6814 0 0
lhand 37.9143 28.3416 0.39003
lfingers 7.12502 -0 0
lthumb 60.4129 39.8874 -0.0012234
rclavicle -1.11424e-14 -5.58897e-14 5.76427e-31
rhumerus -4.9032 -24.9795 -17.7386
rradius 54.0789 -0 0
rwrist -18.9105 0 0
rhand -36.6275 -57.4841 0.479913
rfingers 7.12502 -0 0
rthumb -9.71366 -87.1606 0.462424
214
root 5.01245 15.1283 -25.4852 7.70932 2.51289 4.54674
lfemur 3.39731 1.50016 0.494681
ltibia 9.75331 -0 0
lfoot -34.3953 -10.6231 0.174622
ltoes 45.6594 -0 0
rfemur -29.7254 -17.617 -7.68512
rtibia 49.9207 -0 0
rfoot -27.4823 13.5235 0.380447
rtoes 59.7298 -0 0
lowerback -2.66347 -1.55115 -0.237146
upperback -0.738779 -2.00381 -6.57128
thorax 0.525909 -1.02631 -6.78818
lowerneck -11.2725 -0.232164 6.27534
upperneck 3.70364 -1.36269 2.18697
head 3.18675 -0.475241 -0.46419
lclavicle -1.13978e-14 -5.41598e-14 7.21552e-31
lhumerus -59.0276 -45.6457 117.073
lradius 54.8756 -0 0
lwrist 24.5007 0 0
lhand 37.129 27.9702 0.488586
lfingers 7.12502 -0 0
lthumb 59.6924 39.8887 -0.00153218
rclavicle -1.13978e-14 -5.41598e-14 7.21552e-31
rhumerus -5.6453 -24.4798 -18.7844
rradius 54.2467 -0 0
rwrist -18.1004 0 0
rhand -36.1498 -56.7338 0.601205
rfingers 7.12502 -0 0
rthumb -9.25247 -86.4114 0.579287
